<svg width="180" height="138" viewBox="0 0 180 138" fill="none" xmlns="http://www.w3.org/2000/svg">
<path opacity="0.5" fill-rule="evenodd" clip-rule="evenodd" d="M180 3.63158C180 1.62592 178.561 0 176.786 0C175.011 0 173.572 1.62592 173.572 3.63158C173.572 5.63724 175.011 7.26316 176.786 7.26316C178.561 7.26316 180 5.63724 180 3.63158Z" fill="#E6E6EE"/>
<path opacity="0.5" fill-rule="evenodd" clip-rule="evenodd" d="M160.714 3.63158C160.714 1.62592 159.275 0 157.5 0C155.725 0 154.286 1.62592 154.286 3.63158C154.286 5.63724 155.725 7.26316 157.5 7.26316C159.275 7.26316 160.714 5.63724 160.714 3.63158Z" fill="#E6E6EE"/>
<path opacity="0.5" fill-rule="evenodd" clip-rule="evenodd" d="M141.429 3.63158C141.429 1.62592 139.99 0 138.214 0C136.439 0 135 1.62592 135 3.63158C135 5.63724 136.439 7.26316 138.214 7.26316C139.99 7.26316 141.429 5.63724 141.429 3.63158Z" fill="#E6E6EE"/>
<path opacity="0.5" fill-rule="evenodd" clip-rule="evenodd" d="M122.143 3.63158C122.143 1.62592 120.704 0 118.929 0C117.154 0 115.714 1.62592 115.714 3.63158C115.714 5.63724 117.154 7.26316 118.929 7.26316C120.704 7.26316 122.143 5.63724 122.143 3.63158Z" fill="#E6E6EE"/>
<path opacity="0.5" fill-rule="evenodd" clip-rule="evenodd" d="M102.857 3.63158C102.857 1.62592 101.418 0 99.643 0C97.8678 0 96.4287 1.62592 96.4287 3.63158C96.4287 5.63724 97.8678 7.26316 99.643 7.26316C101.418 7.26316 102.857 5.63724 102.857 3.63158Z" fill="#E6E6EE"/>
<path opacity="0.5" fill-rule="evenodd" clip-rule="evenodd" d="M180 25.4211C180 23.4155 178.561 21.7896 176.786 21.7896C175.011 21.7896 173.572 23.4155 173.572 25.4211C173.572 27.4268 175.011 29.0527 176.786 29.0527C178.561 29.0527 180 27.4268 180 25.4211Z" fill="#E6E6EE"/>
<path opacity="0.5" fill-rule="evenodd" clip-rule="evenodd" d="M160.714 25.4211C160.714 23.4155 159.275 21.7896 157.5 21.7896C155.725 21.7896 154.286 23.4155 154.286 25.4211C154.286 27.4268 155.725 29.0527 157.5 29.0527C159.275 29.0527 160.714 27.4268 160.714 25.4211Z" fill="#E6E6EE"/>
<path opacity="0.5" fill-rule="evenodd" clip-rule="evenodd" d="M141.429 25.4211C141.429 23.4155 139.99 21.7896 138.214 21.7896C136.439 21.7896 135 23.4155 135 25.4211C135 27.4268 136.439 29.0527 138.214 29.0527C139.99 29.0527 141.429 27.4268 141.429 25.4211Z" fill="#E6E6EE"/>
<path opacity="0.5" fill-rule="evenodd" clip-rule="evenodd" d="M122.143 25.4211C122.143 23.4155 120.704 21.7896 118.929 21.7896C117.154 21.7896 115.714 23.4155 115.714 25.4211C115.714 27.4268 117.154 29.0527 118.929 29.0527C120.704 29.0527 122.143 27.4268 122.143 25.4211Z" fill="#E6E6EE"/>
<path opacity="0.5" fill-rule="evenodd" clip-rule="evenodd" d="M102.857 25.4211C102.857 23.4155 101.418 21.7896 99.643 21.7896C97.8678 21.7896 96.4287 23.4155 96.4287 25.4211C96.4287 27.4268 97.8678 29.0527 99.643 29.0527C101.418 29.0527 102.857 27.4268 102.857 25.4211Z" fill="#E6E6EE"/>
<path opacity="0.5" fill-rule="evenodd" clip-rule="evenodd" d="M180 47.2104C180 45.2048 178.561 43.5789 176.786 43.5789C175.011 43.5789 173.572 45.2048 173.572 47.2104C173.572 49.2161 175.011 50.842 176.786 50.842C178.561 50.842 180 49.2161 180 47.2104Z" fill="#E6E6EE"/>
<path opacity="0.5" fill-rule="evenodd" clip-rule="evenodd" d="M160.714 47.2104C160.714 45.2048 159.275 43.5789 157.5 43.5789C155.725 43.5789 154.286 45.2048 154.286 47.2104C154.286 49.2161 155.725 50.842 157.5 50.842C159.275 50.842 160.714 49.2161 160.714 47.2104Z" fill="#E6E6EE"/>
<path opacity="0.5" fill-rule="evenodd" clip-rule="evenodd" d="M141.429 47.2104C141.429 45.2048 139.99 43.5789 138.214 43.5789C136.439 43.5789 135 45.2048 135 47.2104C135 49.2161 136.439 50.842 138.214 50.842C139.99 50.842 141.429 49.2161 141.429 47.2104Z" fill="#E6E6EE"/>
<path opacity="0.5" fill-rule="evenodd" clip-rule="evenodd" d="M122.143 47.2104C122.143 45.2048 120.704 43.5789 118.929 43.5789C117.154 43.5789 115.714 45.2048 115.714 47.2104C115.714 49.2161 117.154 50.842 118.929 50.842C120.704 50.842 122.143 49.2161 122.143 47.2104Z" fill="#E6E6EE"/>
<path opacity="0.5" fill-rule="evenodd" clip-rule="evenodd" d="M102.857 47.2104C102.857 45.2048 101.418 43.5789 99.643 43.5789C97.8678 43.5789 96.4287 45.2048 96.4287 47.2104C96.4287 49.2161 97.8678 50.842 99.643 50.842C101.418 50.842 102.857 49.2161 102.857 47.2104Z" fill="#E6E6EE"/>
<path opacity="0.5" fill-rule="evenodd" clip-rule="evenodd" d="M180 69C180 66.9943 178.561 65.3684 176.786 65.3684C175.011 65.3684 173.572 66.9943 173.572 69C173.572 71.0057 175.011 72.6316 176.786 72.6316C178.561 72.6316 180 71.0057 180 69Z" fill="#E6E6EE"/>
<path opacity="0.5" fill-rule="evenodd" clip-rule="evenodd" d="M160.714 69C160.714 66.9943 159.275 65.3684 157.5 65.3684C155.725 65.3684 154.286 66.9943 154.286 69C154.286 71.0057 155.725 72.6316 157.5 72.6316C159.275 72.6316 160.714 71.0057 160.714 69Z" fill="#E6E6EE"/>
<path opacity="0.5" fill-rule="evenodd" clip-rule="evenodd" d="M141.429 69C141.429 66.9943 139.99 65.3684 138.214 65.3684C136.439 65.3684 135 66.9943 135 69C135 71.0057 136.439 72.6316 138.214 72.6316C139.99 72.6316 141.429 71.0057 141.429 69Z" fill="#E6E6EE"/>
<path opacity="0.5" fill-rule="evenodd" clip-rule="evenodd" d="M122.143 69C122.143 66.9943 120.704 65.3684 118.929 65.3684C117.154 65.3684 115.714 66.9943 115.714 69C115.714 71.0057 117.154 72.6316 118.929 72.6316C120.704 72.6316 122.143 71.0057 122.143 69Z" fill="#E6E6EE"/>
<path opacity="0.5" fill-rule="evenodd" clip-rule="evenodd" d="M102.857 69C102.857 66.9943 101.418 65.3684 99.643 65.3684C97.8678 65.3684 96.4287 66.9943 96.4287 69C96.4287 71.0057 97.8678 72.6316 99.643 72.6316C101.418 72.6316 102.857 71.0057 102.857 69Z" fill="#E6E6EE"/>
<path opacity="0.5" fill-rule="evenodd" clip-rule="evenodd" d="M180 90.7895C180 88.7839 178.561 87.158 176.786 87.158C175.011 87.158 173.572 88.7839 173.572 90.7895C173.572 92.7952 175.011 94.4211 176.786 94.4211C178.561 94.4211 180 92.7952 180 90.7895Z" fill="#E6E6EE"/>
<path opacity="0.5" fill-rule="evenodd" clip-rule="evenodd" d="M160.714 90.7895C160.714 88.7839 159.275 87.158 157.5 87.158C155.725 87.158 154.286 88.7839 154.286 90.7895C154.286 92.7952 155.725 94.4211 157.5 94.4211C159.275 94.4211 160.714 92.7952 160.714 90.7895Z" fill="#E6E6EE"/>
<path opacity="0.5" fill-rule="evenodd" clip-rule="evenodd" d="M141.429 90.7895C141.429 88.7839 139.99 87.158 138.214 87.158C136.439 87.158 135 88.7839 135 90.7895C135 92.7952 136.439 94.4211 138.214 94.4211C139.99 94.4211 141.429 92.7952 141.429 90.7895Z" fill="#E6E6EE"/>
<path opacity="0.5" fill-rule="evenodd" clip-rule="evenodd" d="M122.143 90.7895C122.143 88.7839 120.704 87.158 118.929 87.158C117.154 87.158 115.714 88.7839 115.714 90.7895C115.714 92.7952 117.154 94.4211 118.929 94.4211C120.704 94.4211 122.143 92.7952 122.143 90.7895Z" fill="#E6E6EE"/>
<path opacity="0.5" fill-rule="evenodd" clip-rule="evenodd" d="M102.857 90.7895C102.857 88.7839 101.418 87.158 99.643 87.158C97.8678 87.158 96.4287 88.7839 96.4287 90.7895C96.4287 92.7952 97.8678 94.4211 99.643 94.4211C101.418 94.4211 102.857 92.7952 102.857 90.7895Z" fill="#E6E6EE"/>
<path opacity="0.5" fill-rule="evenodd" clip-rule="evenodd" d="M180 112.579C180 110.573 178.561 108.947 176.786 108.947C175.011 108.947 173.572 110.573 173.572 112.579C173.572 114.585 175.011 116.21 176.786 116.21C178.561 116.21 180 114.585 180 112.579Z" fill="#E6E6EE"/>
<path opacity="0.5" fill-rule="evenodd" clip-rule="evenodd" d="M160.714 112.579C160.714 110.573 159.275 108.947 157.5 108.947C155.725 108.947 154.286 110.573 154.286 112.579C154.286 114.585 155.725 116.21 157.5 116.21C159.275 116.21 160.714 114.585 160.714 112.579Z" fill="#E6E6EE"/>
<path opacity="0.5" fill-rule="evenodd" clip-rule="evenodd" d="M141.429 112.579C141.429 110.573 139.99 108.947 138.214 108.947C136.439 108.947 135 110.573 135 112.579C135 114.585 136.439 116.21 138.214 116.21C139.99 116.21 141.429 114.585 141.429 112.579Z" fill="#E6E6EE"/>
<path opacity="0.5" fill-rule="evenodd" clip-rule="evenodd" d="M122.143 112.579C122.143 110.573 120.704 108.947 118.929 108.947C117.154 108.947 115.714 110.573 115.714 112.579C115.714 114.585 117.154 116.21 118.929 116.21C120.704 116.21 122.143 114.585 122.143 112.579Z" fill="#E6E6EE"/>
<path opacity="0.5" fill-rule="evenodd" clip-rule="evenodd" d="M102.857 112.579C102.857 110.573 101.418 108.947 99.643 108.947C97.8678 108.947 96.4287 110.573 96.4287 112.579C96.4287 114.585 97.8678 116.21 99.643 116.21C101.418 116.21 102.857 114.585 102.857 112.579Z" fill="#E6E6EE"/>
<path opacity="0.5" fill-rule="evenodd" clip-rule="evenodd" d="M180 134.368C180 132.363 178.561 130.737 176.786 130.737C175.011 130.737 173.572 132.363 173.572 134.368C173.572 136.374 175.011 138 176.786 138C178.561 138 180 136.374 180 134.368Z" fill="#E6E6EE"/>
<path opacity="0.5" fill-rule="evenodd" clip-rule="evenodd" d="M160.714 134.368C160.714 132.363 159.275 130.737 157.5 130.737C155.725 130.737 154.286 132.363 154.286 134.368C154.286 136.374 155.725 138 157.5 138C159.275 138 160.714 136.374 160.714 134.368Z" fill="#E6E6EE"/>
<path opacity="0.5" fill-rule="evenodd" clip-rule="evenodd" d="M141.429 134.368C141.429 132.363 139.99 130.737 138.214 130.737C136.439 130.737 135 132.363 135 134.368C135 136.374 136.439 138 138.214 138C139.99 138 141.429 136.374 141.429 134.368Z" fill="#E6E6EE"/>
<path opacity="0.5" fill-rule="evenodd" clip-rule="evenodd" d="M122.143 134.368C122.143 132.363 120.704 130.737 118.929 130.737C117.154 130.737 115.714 132.363 115.714 134.368C115.714 136.374 117.154 138 118.929 138C120.704 138 122.143 136.374 122.143 134.368Z" fill="#E6E6EE"/>
<path opacity="0.5" fill-rule="evenodd" clip-rule="evenodd" d="M102.857 134.368C102.857 132.363 101.418 130.737 99.643 130.737C97.8678 130.737 96.4287 132.363 96.4287 134.368C96.4287 136.374 97.8678 138 99.643 138C101.418 138 102.857 136.374 102.857 134.368Z" fill="#E6E6EE"/>
<path opacity="0.5" fill-rule="evenodd" clip-rule="evenodd" d="M83.5716 3.63158C83.5716 1.62592 82.1325 0 80.3573 0C78.5821 0 77.1431 1.62592 77.1431 3.63158C77.1431 5.63724 78.5821 7.26316 80.3573 7.26316C82.1325 7.26316 83.5716 5.63724 83.5716 3.63158Z" fill="#E6E6EE"/>
<path opacity="0.5" fill-rule="evenodd" clip-rule="evenodd" d="M64.2859 3.63158C64.2859 1.62592 62.8468 0 61.0716 0C59.2964 0 57.8574 1.62592 57.8574 3.63158C57.8574 5.63724 59.2964 7.26316 61.0716 7.26316C62.8468 7.26316 64.2859 5.63724 64.2859 3.63158Z" fill="#E6E6EE"/>
<path opacity="0.5" fill-rule="evenodd" clip-rule="evenodd" d="M45.0002 3.63158C45.0002 1.62592 43.5612 0 41.786 0C40.0108 0 38.5717 1.62592 38.5717 3.63158C38.5717 5.63724 40.0108 7.26316 41.786 7.26316C43.5612 7.26316 45.0002 5.63724 45.0002 3.63158Z" fill="#E6E6EE"/>
<path opacity="0.5" fill-rule="evenodd" clip-rule="evenodd" d="M25.7146 3.63158C25.7146 1.62592 24.2755 0 22.5003 0C20.7251 0 19.286 1.62592 19.286 3.63158C19.286 5.63724 20.7251 7.26316 22.5003 7.26316C24.2755 7.26316 25.7146 5.63724 25.7146 3.63158Z" fill="#E6E6EE"/>
<path opacity="0.5" fill-rule="evenodd" clip-rule="evenodd" d="M6.42887 6.53685C6.42887 4.53119 4.98978 2.90527 3.21459 2.90527C1.43939 2.90527 0.000304222 4.53119 0.000304222 6.53685C0.000304222 8.54252 1.43939 10.1684 3.21459 10.1684C4.98978 10.1684 6.42887 8.54252 6.42887 6.53685Z" fill="#E6E6EE"/>
<path opacity="0.5" fill-rule="evenodd" clip-rule="evenodd" d="M83.5716 25.4211C83.5716 23.4155 82.1325 21.7896 80.3573 21.7896C78.5821 21.7896 77.1431 23.4155 77.1431 25.4211C77.1431 27.4268 78.5821 29.0527 80.3573 29.0527C82.1325 29.0527 83.5716 27.4268 83.5716 25.4211Z" fill="#E6E6EE"/>
<path opacity="0.5" fill-rule="evenodd" clip-rule="evenodd" d="M64.2859 25.4211C64.2859 23.4155 62.8468 21.7896 61.0716 21.7896C59.2964 21.7896 57.8574 23.4155 57.8574 25.4211C57.8574 27.4268 59.2964 29.0527 61.0716 29.0527C62.8468 29.0527 64.2859 27.4268 64.2859 25.4211Z" fill="#E6E6EE"/>
<path opacity="0.5" fill-rule="evenodd" clip-rule="evenodd" d="M45.0002 25.4211C45.0002 23.4155 43.5612 21.7896 41.786 21.7896C40.0108 21.7896 38.5717 23.4155 38.5717 25.4211C38.5717 27.4268 40.0108 29.0527 41.786 29.0527C43.5612 29.0527 45.0002 27.4268 45.0002 25.4211Z" fill="#E6E6EE"/>
<path opacity="0.5" fill-rule="evenodd" clip-rule="evenodd" d="M25.7146 25.4211C25.7146 23.4155 24.2755 21.7896 22.5003 21.7896C20.7251 21.7896 19.286 23.4155 19.286 25.4211C19.286 27.4268 20.7251 29.0527 22.5003 29.0527C24.2755 29.0527 25.7146 27.4268 25.7146 25.4211Z" fill="#E6E6EE"/>
<path opacity="0.5" fill-rule="evenodd" clip-rule="evenodd" d="M6.42887 25.4211C6.42887 23.4155 4.98978 21.7896 3.21459 21.7896C1.43939 21.7896 0.000304222 23.4155 0.000304222 25.4211C0.000304222 27.4268 1.43939 29.0527 3.21459 29.0527C4.98978 29.0527 6.42887 27.4268 6.42887 25.4211Z" fill="#E6E6EE"/>
<path opacity="0.5" fill-rule="evenodd" clip-rule="evenodd" d="M83.5716 47.2104C83.5716 45.2048 82.1325 43.5789 80.3573 43.5789C78.5821 43.5789 77.1431 45.2048 77.1431 47.2104C77.1431 49.2161 78.5821 50.842 80.3573 50.842C82.1325 50.842 83.5716 49.2161 83.5716 47.2104Z" fill="#E6E6EE"/>
<path opacity="0.5" fill-rule="evenodd" clip-rule="evenodd" d="M64.2859 47.2104C64.2859 45.2048 62.8468 43.5789 61.0716 43.5789C59.2964 43.5789 57.8574 45.2048 57.8574 47.2104C57.8574 49.2161 59.2964 50.842 61.0716 50.842C62.8468 50.842 64.2859 49.2161 64.2859 47.2104Z" fill="#E6E6EE"/>
<path opacity="0.5" fill-rule="evenodd" clip-rule="evenodd" d="M45.0002 47.2104C45.0002 45.2048 43.5612 43.5789 41.786 43.5789C40.0108 43.5789 38.5717 45.2048 38.5717 47.2104C38.5717 49.2161 40.0108 50.842 41.786 50.842C43.5612 50.842 45.0002 49.2161 45.0002 47.2104Z" fill="#E6E6EE"/>
<path opacity="0.5" fill-rule="evenodd" clip-rule="evenodd" d="M25.7146 47.2104C25.7146 45.2048 24.2755 43.5789 22.5003 43.5789C20.7251 43.5789 19.286 45.2048 19.286 47.2104C19.286 49.2161 20.7251 50.842 22.5003 50.842C24.2755 50.842 25.7146 49.2161 25.7146 47.2104Z" fill="#E6E6EE"/>
<path opacity="0.5" fill-rule="evenodd" clip-rule="evenodd" d="M6.42887 47.2104C6.42887 45.2048 4.98978 43.5789 3.21459 43.5789C1.43939 43.5789 0.000304222 45.2048 0.000304222 47.2104C0.000304222 49.2161 1.43939 50.842 3.21459 50.842C4.98978 50.842 6.42887 49.2161 6.42887 47.2104Z" fill="#E6E6EE"/>
<path opacity="0.5" fill-rule="evenodd" clip-rule="evenodd" d="M83.5716 69C83.5716 66.9943 82.1325 65.3684 80.3573 65.3684C78.5821 65.3684 77.1431 66.9943 77.1431 69C77.1431 71.0057 78.5821 72.6316 80.3573 72.6316C82.1325 72.6316 83.5716 71.0057 83.5716 69Z" fill="#E6E6EE"/>
<path opacity="0.5" fill-rule="evenodd" clip-rule="evenodd" d="M64.2859 69C64.2859 66.9943 62.8468 65.3684 61.0716 65.3684C59.2964 65.3684 57.8574 66.9943 57.8574 69C57.8574 71.0057 59.2964 72.6316 61.0716 72.6316C62.8468 72.6316 64.2859 71.0057 64.2859 69Z" fill="#E6E6EE"/>
<path opacity="0.5" fill-rule="evenodd" clip-rule="evenodd" d="M45.0002 69C45.0002 66.9943 43.5612 65.3684 41.786 65.3684C40.0108 65.3684 38.5717 66.9943 38.5717 69C38.5717 71.0057 40.0108 72.6316 41.786 72.6316C43.5612 72.6316 45.0002 71.0057 45.0002 69Z" fill="#E6E6EE"/>
<path opacity="0.5" fill-rule="evenodd" clip-rule="evenodd" d="M25.7146 69C25.7146 66.9943 24.2755 65.3684 22.5003 65.3684C20.7251 65.3684 19.286 66.9943 19.286 69C19.286 71.0057 20.7251 72.6316 22.5003 72.6316C24.2755 72.6316 25.7146 71.0057 25.7146 69Z" fill="#E6E6EE"/>
<path opacity="0.5" fill-rule="evenodd" clip-rule="evenodd" d="M6.42887 69C6.42887 66.9943 4.98978 65.3684 3.21459 65.3684C1.43939 65.3684 0.000304222 66.9943 0.000304222 69C0.000304222 71.0057 1.43939 72.6316 3.21459 72.6316C4.98978 72.6316 6.42887 71.0057 6.42887 69Z" fill="#E6E6EE"/>
<path opacity="0.5" fill-rule="evenodd" clip-rule="evenodd" d="M83.5716 90.7895C83.5716 88.7839 82.1325 87.158 80.3573 87.158C78.5821 87.158 77.1431 88.7839 77.1431 90.7895C77.1431 92.7952 78.5821 94.4211 80.3573 94.4211C82.1325 94.4211 83.5716 92.7952 83.5716 90.7895Z" fill="#E6E6EE"/>
<path opacity="0.5" fill-rule="evenodd" clip-rule="evenodd" d="M64.2859 90.7895C64.2859 88.7839 62.8468 87.158 61.0716 87.158C59.2964 87.158 57.8574 88.7839 57.8574 90.7895C57.8574 92.7952 59.2964 94.4211 61.0716 94.4211C62.8468 94.4211 64.2859 92.7952 64.2859 90.7895Z" fill="#E6E6EE"/>
<path opacity="0.5" fill-rule="evenodd" clip-rule="evenodd" d="M45.0002 90.7895C45.0002 88.7839 43.5612 87.158 41.786 87.158C40.0108 87.158 38.5717 88.7839 38.5717 90.7895C38.5717 92.7952 40.0108 94.4211 41.786 94.4211C43.5612 94.4211 45.0002 92.7952 45.0002 90.7895Z" fill="#E6E6EE"/>
<path opacity="0.5" fill-rule="evenodd" clip-rule="evenodd" d="M25.7146 90.7895C25.7146 88.7839 24.2755 87.158 22.5003 87.158C20.7251 87.158 19.286 88.7839 19.286 90.7895C19.286 92.7952 20.7251 94.4211 22.5003 94.4211C24.2755 94.4211 25.7146 92.7952 25.7146 90.7895Z" fill="#E6E6EE"/>
<path opacity="0.5" fill-rule="evenodd" clip-rule="evenodd" d="M6.42887 90.7895C6.42887 88.7839 4.98978 87.158 3.21459 87.158C1.43939 87.158 0.000304222 88.7839 0.000304222 90.7895C0.000304222 92.7952 1.43939 94.4211 3.21459 94.4211C4.98978 94.4211 6.42887 92.7952 6.42887 90.7895Z" fill="#E6E6EE"/>
<path opacity="0.5" fill-rule="evenodd" clip-rule="evenodd" d="M83.5716 112.579C83.5716 110.573 82.1325 108.947 80.3573 108.947C78.5821 108.947 77.1431 110.573 77.1431 112.579C77.1431 114.585 78.5821 116.21 80.3573 116.21C82.1325 116.21 83.5716 114.585 83.5716 112.579Z" fill="#E6E6EE"/>
<path opacity="0.5" fill-rule="evenodd" clip-rule="evenodd" d="M64.2859 112.579C64.2859 110.573 62.8468 108.947 61.0716 108.947C59.2964 108.947 57.8574 110.573 57.8574 112.579C57.8574 114.585 59.2964 116.21 61.0716 116.21C62.8468 116.21 64.2859 114.585 64.2859 112.579Z" fill="#E6E6EE"/>
<path opacity="0.5" fill-rule="evenodd" clip-rule="evenodd" d="M45.0002 112.579C45.0002 110.573 43.5612 108.947 41.786 108.947C40.0108 108.947 38.5717 110.573 38.5717 112.579C38.5717 114.585 40.0108 116.21 41.786 116.21C43.5612 116.21 45.0002 114.585 45.0002 112.579Z" fill="#E6E6EE"/>
<path opacity="0.5" fill-rule="evenodd" clip-rule="evenodd" d="M25.7146 112.579C25.7146 110.573 24.2755 108.947 22.5003 108.947C20.7251 108.947 19.286 110.573 19.286 112.579C19.286 114.585 20.7251 116.21 22.5003 116.21C24.2755 116.21 25.7146 114.585 25.7146 112.579Z" fill="#E6E6EE"/>
<path opacity="0.5" fill-rule="evenodd" clip-rule="evenodd" d="M6.42887 112.579C6.42887 110.573 4.98978 108.947 3.21459 108.947C1.43939 108.947 0.000304222 110.573 0.000304222 112.579C0.000304222 114.585 1.43939 116.21 3.21459 116.21C4.98978 116.21 6.42887 114.585 6.42887 112.579Z" fill="#E6E6EE"/>
<path opacity="0.5" fill-rule="evenodd" clip-rule="evenodd" d="M83.5716 134.368C83.5716 132.363 82.1325 130.737 80.3573 130.737C78.5821 130.737 77.1431 132.363 77.1431 134.368C77.1431 136.374 78.5821 138 80.3573 138C82.1325 138 83.5716 136.374 83.5716 134.368Z" fill="#E6E6EE"/>
<path opacity="0.5" fill-rule="evenodd" clip-rule="evenodd" d="M64.2859 134.368C64.2859 132.363 62.8468 130.737 61.0716 130.737C59.2964 130.737 57.8574 132.363 57.8574 134.368C57.8574 136.374 59.2964 138 61.0716 138C62.8468 138 64.2859 136.374 64.2859 134.368Z" fill="#E6E6EE"/>
<path opacity="0.5" fill-rule="evenodd" clip-rule="evenodd" d="M45.0002 134.368C45.0002 132.363 43.5612 130.737 41.786 130.737C40.0108 130.737 38.5717 132.363 38.5717 134.368C38.5717 136.374 40.0108 138 41.786 138C43.5612 138 45.0002 136.374 45.0002 134.368Z" fill="#E6E6EE"/>
<path opacity="0.5" fill-rule="evenodd" clip-rule="evenodd" d="M25.7146 134.368C25.7146 132.363 24.2755 130.737 22.5003 130.737C20.7251 130.737 19.286 132.363 19.286 134.368C19.286 136.374 20.7251 138 22.5003 138C24.2755 138 25.7146 136.374 25.7146 134.368Z" fill="#E6E6EE"/>
<path opacity="0.5" fill-rule="evenodd" clip-rule="evenodd" d="M6.42887 134.368C6.42887 132.363 4.98978 130.737 3.21459 130.737C1.43939 130.737 0.000304222 132.363 0.000304222 134.368C0.000304222 136.374 1.43939 138 3.21459 138C4.98978 138 6.42887 136.374 6.42887 134.368Z" fill="#E6E6EE"/>
</svg>
