<svg width="56" height="59" viewBox="0 0 56 59" fill="none" xmlns="http://www.w3.org/2000/svg">
<g filter="url(#filter0_d_31_873)">
<path fill-rule="evenodd" clip-rule="evenodd" d="M25 50C11.1929 50 0 38.8071 0 25C0 11.1929 11.1929 0 25 0C38.8071 0 50 11.1929 50 25C50 38.8071 38.8071 50 25 50Z" fill="#202047"/>
</g>
<path fill-rule="evenodd" clip-rule="evenodd" d="M20.3944 28.1577C20.3944 28.5321 20.5142 28.8467 20.7539 29.1163C20.9786 29.3409 21.2781 29.4608 21.6675 29.4608C22.027 29.4608 22.3416 29.3409 22.5962 29.1163L24.2588 27.4088V33.37C24.2588 33.7295 24.3786 34.0291 24.6033 34.2837C24.8429 34.5383 25.1275 34.6582 25.487 34.6582C25.8315 34.6582 26.131 34.5383 26.3856 34.2837C26.6403 34.0291 26.7601 33.7295 26.7601 33.37V27.4687L28.4376 29.1313C29.0368 29.5956 29.6509 29.5956 30.265 29.1313C30.5046 28.9066 30.6244 28.592 30.6244 28.2026C30.6244 27.8431 30.5046 27.5436 30.265 27.274L26.3856 23.4246C26.146 23.185 25.8464 23.0651 25.487 23.0651C25.1275 23.0651 24.8279 23.185 24.6033 23.4246L20.7389 27.274C20.5142 27.5136 20.3944 27.7982 20.3944 28.1577H20.3944ZM9.99963 27.2141C9.99963 29.2061 10.6886 30.9286 12.0816 32.3515C13.4745 33.7894 15.1671 34.5533 17.1741 34.6432C17.3389 34.6432 17.4288 34.5533 17.4288 34.3886V32.3965C17.4288 32.2167 17.3389 32.1119 17.1741 32.1119C15.886 32.052 14.8076 31.5427 13.9089 30.5841C13.0102 29.6255 12.5609 28.5022 12.5609 27.2141C12.5609 25.9859 12.9803 24.9074 13.819 23.9788C14.6578 23.0651 15.7063 22.5259 16.9644 22.3761H17.7583C17.953 22.3761 18.0578 22.2863 18.0578 22.1065L18.1477 21.2528C18.3125 19.6352 19.0015 18.2721 20.2147 17.1788C21.4279 16.0854 22.8658 15.5312 24.4984 15.5312C26.116 15.5312 27.539 16.0854 28.7672 17.1788C29.9954 18.2722 30.6843 19.6352 30.8491 21.2528L30.9689 22.1065C30.9689 22.2863 31.0588 22.3761 31.2385 22.3761H33.65C34.9831 22.3761 36.1364 22.8554 37.1099 23.814C38.0835 24.7726 38.5778 25.911 38.5778 27.1991C38.5778 28.4872 38.1285 29.6105 37.2298 30.5691C36.3311 31.5277 35.2377 32.037 33.9645 32.0969C33.7698 32.0969 33.665 32.1868 33.665 32.3815V34.3736C33.665 34.5383 33.7698 34.6282 33.9645 34.6282C35.2676 34.5982 36.4659 34.2388 37.5593 33.5648C38.6527 32.8907 39.5214 31.9921 40.1505 30.8687C40.7796 29.7454 41.0941 28.5172 41.0941 27.2141C41.0941 26.2105 40.8994 25.2519 40.51 24.3533C40.1205 23.4396 39.5813 22.6607 38.9223 22.0017C38.2633 21.3427 37.4694 20.8184 36.5558 20.429C35.6421 20.0396 34.6835 19.8448 33.68 19.8448H33.2007C32.7064 17.8378 31.6579 16.2052 30.0403 14.9171C28.4376 13.6439 26.5953 12.9999 24.5284 12.9999C22.4165 12.9999 20.5292 13.6589 18.8966 14.977C17.264 16.295 16.2155 17.9726 15.7512 20.0096C14.0887 20.399 12.7257 21.2528 11.6622 22.6008C10.5239 23.9638 9.99964 25.4916 9.99964 27.214L9.99963 27.2141Z" fill="white"/>
<defs>
<filter id="filter0_d_31_873" x="-6" y="-3" width="62" height="62" filterUnits="userSpaceOnUse" color-interpolation-filters="sRGB">
<feFlood flood-opacity="0" result="BackgroundImageFix"/>
<feColorMatrix in="SourceAlpha" type="matrix" values="0 0 0 0 0 0 0 0 0 0 0 0 0 0 0 0 0 0 127 0" result="hardAlpha"/>
<feOffset dy="3"/>
<feGaussianBlur stdDeviation="3"/>
<feColorMatrix type="matrix" values="0 0 0 0 0.498039 0 0 0 0 0.105882 0 0 0 0 0.372549 0 0 0 0.19 0"/>
<feBlend mode="normal" in2="BackgroundImageFix" result="effect1_dropShadow_31_873"/>
<feBlend mode="normal" in="SourceGraphic" in2="effect1_dropShadow_31_873" result="shape"/>
</filter>
</defs>
</svg>
