<svg width="56" height="59" viewBox="0 0 56 59" fill="none" xmlns="http://www.w3.org/2000/svg">
<g filter="url(#filter0_d_31_844)">
<path fill-rule="evenodd" clip-rule="evenodd" d="M31 50C17.1929 50 6 38.8071 6 25C6 11.1929 17.1929 0 31 0C44.8071 0 56 11.1929 56 25C56 38.8071 44.8071 50 31 50Z" fill="#202047"/>
</g>
<path fill-rule="evenodd" clip-rule="evenodd" d="M42.7747 37.7654C42.5114 37.767 42.2584 37.6636 42.0715 37.4781L34.1483 29.5515C33.7599 29.163 33.7599 28.5331 34.1483 28.1445C34.5367 27.756 35.1663 27.756 35.5547 28.1445L43.4779 36.0711C43.6653 36.2572 43.7708 36.5104 43.7708 36.7746C43.7708 37.0388 43.6653 37.2921 43.4779 37.4781C43.2909 37.6636 43.0379 37.767 42.7747 37.7654L42.7747 37.7654Z" fill="white"/>
<path fill-rule="evenodd" clip-rule="evenodd" d="M26.9264 17.9571C26.3816 17.9571 25.9399 17.5132 25.9399 16.9657V13.9914C25.9399 13.4439 26.3816 13 26.9264 13C27.4712 13 27.9128 13.4439 27.9128 13.9914V16.9657C27.9128 17.5132 27.4712 17.9571 26.9264 17.9571Z" fill="white"/>
<path fill-rule="evenodd" clip-rule="evenodd" d="M23.8362 18.8208C23.5729 18.8223 23.3199 18.7191 23.1331 18.534L21.0336 16.4276C20.6971 16.0352 20.7197 15.4504 21.0855 15.0851C21.4513 14.7198 22.037 14.6972 22.4299 15.0332L24.5393 17.1297C24.7268 17.3154 24.8322 17.5682 24.8322 17.8318C24.8322 18.0955 24.7268 18.3483 24.5393 18.534C24.3524 18.7191 24.0994 18.8223 23.8362 18.8208H23.8362Z" fill="white"/>
<path fill-rule="evenodd" clip-rule="evenodd" d="M22.9657 21.9128H19.9914C19.4439 21.9128 19 21.4711 19 20.9263C19 20.3815 19.4439 19.9399 19.9914 19.9399H22.9657C23.5132 19.9399 23.9571 20.3815 23.9571 20.9263C23.9571 21.4711 23.5132 21.9128 22.9657 21.9128Z" fill="white"/>
<path fill-rule="evenodd" clip-rule="evenodd" d="M21.7364 27.107C21.4802 27.1219 21.2282 27.0367 21.0336 26.8694C20.6498 26.4832 20.6498 25.8594 21.0336 25.4732L23.1321 23.3641C23.5203 22.9758 24.1496 22.9758 24.5377 23.3641C24.9259 23.7523 24.9259 24.3819 24.5377 24.7702L22.4293 26.8694C22.2372 27.0343 21.9892 27.1193 21.7364 27.107Z" fill="white"/>
<path fill-rule="evenodd" clip-rule="evenodd" d="M30.0174 18.8208C29.754 18.8223 29.5007 18.7191 29.3137 18.5341C29.126 18.3485 29.0205 18.0958 29.0205 17.8322C29.0205 17.5686 29.126 17.3159 29.3137 17.1302L31.4249 15.0343C31.8108 14.6357 32.4476 14.6247 32.8472 15.0096C33.2468 15.3945 33.2579 16.0297 32.872 16.4283L30.7211 18.5341C30.5341 18.7192 30.2809 18.8223 30.0174 18.8208L30.0174 18.8208Z" fill="white"/>
<path fill-rule="evenodd" clip-rule="evenodd" d="M41.1335 24.9437L27.2586 19.9899C26.8973 19.8596 26.4931 19.9498 26.2215 20.2213C25.9499 20.4929 25.8597 20.8969 25.99 21.2581L30.9453 35.1287C31.0872 35.5209 31.4597 35.7824 31.8769 35.7826V35.7826C32.3091 35.7683 32.6821 35.4756 32.7986 35.0593L34.6321 28.659L41.0641 26.8658C41.4764 26.7479 41.7661 26.3782 41.7819 25.9497C41.7977 25.5213 41.536 25.1313 41.1335 24.9834L41.1335 24.9437Z" stroke="white" stroke-width="2"/>
<defs>
<filter id="filter0_d_31_844" x="0" y="-3" width="62" height="62" filterUnits="userSpaceOnUse" color-interpolation-filters="sRGB">
<feFlood flood-opacity="0" result="BackgroundImageFix"/>
<feColorMatrix in="SourceAlpha" type="matrix" values="0 0 0 0 0 0 0 0 0 0 0 0 0 0 0 0 0 0 127 0" result="hardAlpha"/>
<feOffset dy="3"/>
<feGaussianBlur stdDeviation="3"/>
<feColorMatrix type="matrix" values="0 0 0 0 0.498039 0 0 0 0 0.105882 0 0 0 0 0.372549 0 0 0 0.19 0"/>
<feBlend mode="normal" in2="BackgroundImageFix" result="effect1_dropShadow_31_844"/>
<feBlend mode="normal" in="SourceGraphic" in2="effect1_dropShadow_31_844" result="shape"/>
</filter>
</defs>
</svg>
