<svg width="50" height="50" viewBox="0 0 50 50" fill="none" xmlns="http://www.w3.org/2000/svg">
<path fill-rule="evenodd" clip-rule="evenodd" d="M25 50C11.1929 50 0 38.8071 0 25C0 11.1929 11.1929 0 25 0C38.8071 0 50 11.1929 50 25C50 38.8071 38.8071 50 25 50Z" fill="#202047"/>
<path d="M34.0745 16.273L16.273 34.0745" stroke="white" stroke-width="2" stroke-linecap="round" stroke-linejoin="round"/>
<path fill-rule="evenodd" clip-rule="evenodd" d="M21.3548 18.1774C21.3548 19.9323 19.9323 21.3548 18.1774 21.3548C16.4226 21.3548 15 19.9323 15 18.1774C15 16.4226 16.4226 15 18.1774 15C19.9323 15 21.3548 16.4226 21.3548 18.1774Z" stroke="white" stroke-width="2" stroke-linecap="round" stroke-linejoin="round"/>
<path fill-rule="evenodd" clip-rule="evenodd" d="M35.3475 32.1651C35.3475 33.9227 33.9227 35.3475 32.1651 35.3475C30.4075 35.3475 28.9827 33.9227 28.9827 32.1651C28.9827 30.4075 30.4075 28.9827 32.1651 28.9827C33.9227 28.9827 35.3475 30.4075 35.3475 32.1651Z" stroke="white" stroke-width="2" stroke-linecap="round" stroke-linejoin="round"/>
</svg>
