<svg width="57" height="59" viewBox="0 0 57 59" fill="none" xmlns="http://www.w3.org/2000/svg">
<g filter="url(#filter0_d_31_865)">
<path fill-rule="evenodd" clip-rule="evenodd" d="M31 50C17.1929 50 6 38.8071 6 25C6 11.1929 17.1929 0 31 0C44.8071 0 56 11.1929 56 25C56 38.8071 44.8071 50 31 50Z" fill="#202047"/>
</g>
<path fill-rule="evenodd" clip-rule="evenodd" d="M38.4218 16.2192L35.5349 13.3496C35.2342 13.0489 34.8046 12.9286 34.3664 13.0403C34.2633 13.0661 34.1602 13.109 34.0657 13.1692C33.6618 13.4183 33.4471 13.8393 33.4814 14.2947C33.4986 14.5868 33.6447 14.8617 33.8509 15.0765L35.2256 16.4426H21.7018C19.9146 16.4426 18.2392 17.1385 16.9676 18.4101C15.6959 19.6731 15 21.3484 15 23.1355V24.5101C15 25.1717 15.5413 25.713 16.2029 25.713C16.8645 25.713 17.4058 25.1717 17.4058 24.5102V23.1355C17.4058 21.9928 17.8525 20.9189 18.6688 20.1027C19.485 19.2864 20.559 18.8397 21.7018 18.8397H35.0538L33.679 20.2058C33.4728 20.412 33.3354 20.6697 33.3096 20.9532C33.2752 21.3141 33.4041 21.6663 33.6618 21.9241C33.8852 22.1475 34.1945 22.2763 34.5125 22.2763C34.8304 22.2763 35.1311 22.1561 35.3631 21.9241L38.4218 18.8826C38.7827 18.5304 38.9803 18.0493 38.9803 17.5509C38.9717 17.044 38.7741 16.5715 38.4218 16.2192L38.4218 16.2192Z" fill="white"/>
<path fill-rule="evenodd" clip-rule="evenodd" d="M46.7972 23.658C46.1356 23.658 45.5943 24.1993 45.5943 24.861V26.2358C45.5943 27.3786 45.1475 28.4527 44.3313 29.269C43.515 30.0853 42.441 30.5321 41.2983 30.5321H27.9463L29.321 29.1659C29.5272 28.9596 29.6647 28.7019 29.6905 28.4097C29.7248 28.0488 29.596 27.6965 29.3382 27.4388C29.1148 27.2153 28.8055 27.0865 28.4876 27.0865C28.1697 27.0865 27.869 27.2068 27.637 27.4388L24.5782 30.4805C24.2174 30.8328 24.0198 31.314 24.0198 31.8124C24.0198 32.3193 24.2174 32.7919 24.5782 33.1442L27.4651 36.0141C27.7659 36.3149 28.1955 36.4352 28.6337 36.3235C28.7368 36.2977 28.8399 36.2547 28.9344 36.1946C29.3382 35.9454 29.553 35.5244 29.5186 35.069C29.5015 34.7768 29.3554 34.5018 29.1492 34.287L27.7745 32.9208H41.2983C44.9929 32.9208 48.0001 29.9134 48.0001 26.2186V24.8438C48.0001 24.1993 47.4588 23.658 46.7972 23.658L46.7972 23.658Z" fill="white"/>
<defs>
<filter id="filter0_d_31_865" x="0" y="-3" width="62" height="62" filterUnits="userSpaceOnUse" color-interpolation-filters="sRGB">
<feFlood flood-opacity="0" result="BackgroundImageFix"/>
<feColorMatrix in="SourceAlpha" type="matrix" values="0 0 0 0 0 0 0 0 0 0 0 0 0 0 0 0 0 0 127 0" result="hardAlpha"/>
<feOffset dy="3"/>
<feGaussianBlur stdDeviation="3"/>
<feColorMatrix type="matrix" values="0 0 0 0 0.498039 0 0 0 0 0.105882 0 0 0 0 0.372549 0 0 0 0.19 0"/>
<feBlend mode="normal" in2="BackgroundImageFix" result="effect1_dropShadow_31_865"/>
<feBlend mode="normal" in="SourceGraphic" in2="effect1_dropShadow_31_865" result="shape"/>
</filter>
</defs>
</svg>
