<svg width="50" height="50" viewBox="0 0 50 50" fill="none" xmlns="http://www.w3.org/2000/svg">
<path fill-rule="evenodd" clip-rule="evenodd" d="M25 50C11.1929 50 0 38.8071 0 25C0 11.1929 11.1929 0 25 0C38.8071 0 50 11.1929 50 25C50 38.8071 38.8071 50 25 50Z" fill="#202047"/>
<path fill-rule="evenodd" clip-rule="evenodd" d="M30.813 18.5969V15.4417H36.076V18.5969H30.813ZM13.4415 18.5969V15.4417H18.7045V18.5969H13.4415ZM36.7968 14H30.0921C29.694 14 29.3712 14.3227 29.3712 14.7209V19.3178V26.9369C29.3712 29.4802 27.3021 31.5493 24.7587 31.5493C22.2153 31.5493 20.1462 29.4802 20.1462 26.9369V19.3178V14.7209C20.1462 14.3227 19.8235 14 19.4253 14H12.7206C12.3225 14 11.9998 14.3227 11.9998 14.7209V19.3178V26.9369C11.9998 28.2186 12.1903 29.4846 12.566 30.6997C12.6837 31.0801 13.0872 31.2927 13.4677 31.1754C13.848 31.0577 14.0609 30.654 13.9434 30.2737C13.6103 29.1967 13.4414 28.074 13.4414 26.9368V20.0386H18.7044V26.9368C18.7044 30.2751 21.4203 32.991 24.7586 32.991C28.097 32.991 30.8129 30.2751 30.8129 26.9368V20.0386H36.0759V26.9368C36.0759 33.1771 30.9989 38.254 24.7586 38.254C20.8156 38.254 17.2165 36.2452 15.1312 32.8802C14.9215 32.5418 14.4773 32.4375 14.1387 32.6472C13.8003 32.857 13.696 33.3013 13.9057 33.6397C15.0303 35.4545 16.6044 36.9722 18.458 38.029C20.3706 39.1194 22.5494 39.6959 24.7586 39.6959C31.794 39.6959 37.5176 33.9722 37.5176 26.9369V19.3178V14.7209C37.5177 14.3228 37.195 14.0001 36.7968 14.0001L36.7968 14Z" fill="white"/>
</svg>
