<svg width="150" height="46" viewBox="0 0 150 46" fill="none" xmlns="http://www.w3.org/2000/svg">
<path fill-rule="evenodd" clip-rule="evenodd" d="M144.358 44.1485H5.64383C2.83272 44.1485 0.554743 41.8701 0.554743 39.0584V6.19101C0.554743 3.37934 2.83271 1.10093 5.64383 1.10093H144.358C147.169 1.10093 149.447 3.37935 149.447 6.19101V39.0584C149.447 41.8701 147.169 44.1485 144.358 44.1485Z" fill="black" fill-opacity="0.01"/>
<mask id="mask0_31_1141" style="mask-type:alpha" maskUnits="userSpaceOnUse" x="0" y="0" width="150" height="46">
<path fill-rule="evenodd" clip-rule="evenodd" d="M0 0.550781H150V45.3559H0V0.550781Z" fill="black"/>
</mask>
<g mask="url(#mask0_31_1141)">
<path fill-rule="evenodd" clip-rule="evenodd" d="M144.359 44.7016H5.64372C2.53106 44.7016 0 42.1679 0 39.0552V6.19452C0 3.08186 2.53106 0.548096 5.64372 0.548096H144.359C147.472 0.548096 150.003 3.08186 150.003 6.19452V39.0552C150.003 42.1679 147.472 44.7016 144.359 44.7016ZM5.64371 1.66285C3.14496 1.66285 1.11204 3.69578 1.11204 6.19452V39.0552C1.11204 41.554 3.14497 43.5869 5.64371 43.5869H144.359C146.858 43.5869 148.891 41.554 148.891 39.0552V6.19452C148.891 3.69577 146.858 1.66285 144.359 1.66285H5.64371Z" fill="#A7A9AB"/>
</g>
<path fill-rule="evenodd" clip-rule="evenodd" d="M49.94 13.1037L49.3153 15.1609H47.9474L50.2739 7.90698H51.9621L54.3182 15.1609H52.8992L52.2422 13.1037M52.0159 12.1047L51.4451 10.3169C51.3051 9.87524 51.1866 9.38252 51.079 8.96245H51.0574C50.9524 9.38251 50.842 9.88605 50.7154 10.3169L50.1554 12.1047H52.0159Z" fill="white"/>
<path fill-rule="evenodd" clip-rule="evenodd" d="M56.2995 9.92226L57.1488 12.577C57.2993 13.0402 57.4041 13.4602 57.5009 13.891H57.5331C57.6299 13.4602 57.7481 13.0509 57.8879 12.577L58.7265 9.92226H60.1107L58.1137 15.1618H56.8155L54.8696 9.92226" fill="white"/>
<path fill-rule="evenodd" clip-rule="evenodd" d="M65.3983 13.9009C65.3983 14.3748 65.4199 14.8379 65.4845 15.1583H64.2889L64.1947 14.5794H64.1597C63.85 14.986 63.3007 15.2768 62.6114 15.2768C61.556 15.2768 60.9662 14.5148 60.9662 13.7178C60.9662 12.4038 62.1375 11.7279 64.0735 11.7387V11.6526C64.0735 11.3079 63.9362 10.737 63.01 10.737C62.493 10.737 61.9544 10.8986 61.599 11.1248L61.3405 10.2631C61.7283 10.0262 62.4068 9.80273 63.2361 9.80273C64.9137 9.80273 65.3983 10.8663 65.3983 12.0187M64.1085 12.5977C63.1715 12.5869 62.2776 12.7808 62.2776 13.5777C62.2776 14.0947 62.6114 14.3317 63.0315 14.3317C63.5674 14.3317 63.947 13.9871 64.0735 13.6101C64.1085 13.5131 64.1085 13.4162 64.1085 13.3192V12.5977Z" fill="white"/>
<path fill-rule="evenodd" clip-rule="evenodd" d="M67.924 9.16708C67.485 9.16708 67.1943 8.844 67.1943 8.45626C67.1943 8.04695 67.4932 7.73462 67.9374 7.73462C68.3871 7.73462 68.6671 8.04695 68.6779 8.45626C68.6779 8.844 68.3871 9.16708 67.9374 9.16708M67.2696 9.92105H68.5917V15.1608H67.2696V9.92105Z" fill="white"/>
<path fill-rule="evenodd" clip-rule="evenodd" d="M70.4957 15.1609H71.8199V7.50854H70.4957V15.1609Z" fill="white"/>
<path fill-rule="evenodd" clip-rule="evenodd" d="M77.8003 13.9009C77.8003 14.3748 77.8217 14.8379 77.8865 15.1583H76.694L76.5968 14.5794H76.5644C76.2522 14.986 75.7028 15.2768 75.0135 15.2768C73.9609 15.2768 73.3688 14.5148 73.3688 13.7178C73.3688 12.4038 74.5427 11.7279 76.4782 11.7387V11.6526C76.4782 11.3079 76.3383 10.737 75.4119 10.737C74.8949 10.737 74.3566 10.8986 74.0036 11.1248L73.7451 10.2631C74.1332 10.0262 74.8087 9.80273 75.638 9.80273C77.3157 9.80273 77.8003 10.8663 77.8003 12.0187M76.5107 12.5977C75.5739 12.5869 74.6798 12.7808 74.6798 13.5777C74.6798 14.0947 75.0135 14.3317 75.434 14.3317C75.9723 14.3317 76.3494 13.9871 76.4783 13.6101C76.5107 13.5131 76.5107 13.4162 76.5107 13.3192V12.5977Z" fill="white"/>
<path fill-rule="evenodd" clip-rule="evenodd" d="M79.6718 7.50854H80.9966V10.64H81.018C81.3413 10.1338 81.9093 9.80263 82.6958 9.80263C83.9772 9.80263 84.8898 10.8662 84.8795 12.4602C84.8795 14.3424 83.6863 15.2794 82.5021 15.2794C81.8231 15.2794 81.2227 15.0209 80.8457 14.3747H80.8243L80.7595 15.1609H79.629C79.6504 14.8055 79.6718 14.2239 79.6718 13.6961M80.9966 12.9961C80.9966 13.1037 81.0076 13.2115 81.029 13.3084C81.1689 13.8469 81.6322 14.2347 82.2001 14.2347C83.0294 14.2347 83.536 13.5776 83.536 12.5141C83.536 11.5878 83.0942 10.8339 82.2112 10.8339C81.6721 10.8339 81.18 11.2216 81.0393 11.8032C81.018 11.9001 80.9966 12.0186 80.9966 12.1479L80.9966 12.9961Z" fill="white"/>
<path fill-rule="evenodd" clip-rule="evenodd" d="M86.438 15.1609H87.7602V7.50854H86.438V15.1609Z" fill="white"/>
<path fill-rule="evenodd" clip-rule="evenodd" d="M90.6118 12.91C90.6442 13.8578 91.3873 14.2671 92.2275 14.2671C92.839 14.2671 93.2698 14.1701 93.6785 14.0301L93.8729 14.9322C93.42 15.1287 92.7955 15.2661 92.0442 15.2661C90.343 15.2661 89.3407 14.224 89.3407 12.6219C89.3407 11.1678 90.2244 9.80273 91.9042 9.80273C93.6034 9.80273 94.1631 11.2002 94.1631 12.3526C94.1631 12.6004 94.1417 12.7942 94.1204 12.91M92.9141 11.9864C92.9251 11.5018 92.7094 10.7048 91.8291 10.7048C91.0102 10.7048 90.6656 11.4479 90.6118 11.9864H92.9141Z" fill="white"/>
<path fill-rule="evenodd" clip-rule="evenodd" d="M100.693 15.2795C99.2179 15.2795 98.0681 14.267 98.0681 12.5788C98.0681 10.8555 99.1958 9.80273 100.779 9.80273C102.338 9.80273 103.383 10.8986 103.383 12.4926C103.383 14.4179 102.026 15.2795 100.704 15.2795M100.736 14.321C101.487 14.321 102.015 13.5886 102.015 12.525C102.015 11.7064 101.649 10.7586 100.747 10.7586C99.81 10.7586 99.433 11.6741 99.433 12.5465C99.433 13.5562 99.9389 14.3209 100.723 14.3209L100.736 14.321Z" fill="white"/>
<path fill-rule="evenodd" clip-rule="evenodd" d="M104.938 11.4815C104.938 10.8788 104.92 10.373 104.898 9.921H106.047L106.111 10.7066H106.144C106.381 10.2977 106.951 9.80535 107.823 9.80535C108.736 9.80535 109.683 10.3945 109.683 12.0518V15.1565H108.359V12.2024C108.359 11.4492 108.079 10.8788 107.361 10.8788C106.833 10.8788 106.467 11.2554 106.327 11.6537C106.284 11.7612 106.262 11.9227 106.262 12.0733V15.1565H104.938" fill="white"/>
<path fill-rule="evenodd" clip-rule="evenodd" d="M115.787 8.57946V9.9213H117.045V10.9109H115.787V13.2101C115.787 13.8555 115.959 14.1781 116.463 14.1781C116.7 14.1781 116.829 14.1674 116.981 14.1243L117.002 15.122C116.808 15.2 116.453 15.2619 116.043 15.2619C115.549 15.2619 115.15 15.1005 114.902 14.8343C114.611 14.5331 114.482 14.049 114.482 13.3606V10.9109H113.738V9.9213H114.482V8.9452" fill="white"/>
<path fill-rule="evenodd" clip-rule="evenodd" d="M118.512 7.50708H119.837V10.6288H119.859C120.02 10.3809 120.247 10.1762 120.516 10.0362C120.785 9.88808 121.096 9.80189 121.43 9.80189C122.324 9.80189 123.259 10.3917 123.259 12.0724V15.1618H121.936V12.2125C121.936 11.4583 121.656 10.8766 120.923 10.8766C120.409 10.8766 120.042 11.2213 119.891 11.6199C119.848 11.7385 119.837 11.8785 119.837 12.0186V15.1618H118.512" fill="white"/>
<path fill-rule="evenodd" clip-rule="evenodd" d="M126.079 12.91C126.111 13.8578 126.852 14.2671 127.692 14.2671C128.306 14.2671 128.737 14.1701 129.144 14.0301L129.34 14.9322C128.887 15.1287 128.263 15.2661 127.508 15.2661C125.81 15.2661 124.808 14.224 124.808 12.6219C124.808 11.1678 125.691 9.80273 127.369 9.80273C129.068 9.80273 129.628 11.2002 129.628 12.3526C129.628 12.6004 129.606 12.7942 129.585 12.91M128.381 11.9864C128.392 11.5018 128.176 10.7048 127.293 10.7048C126.475 10.7048 126.133 11.4479 126.079 11.9864H128.381Z" fill="white"/>
<path fill-rule="evenodd" clip-rule="evenodd" d="M33.4811 22.191C33.4461 18.6017 36.4194 16.8541 36.5567 16.7734C34.8735 14.3176 32.2639 13.9837 31.3455 13.9568C29.156 13.7279 27.031 15.2708 25.9161 15.2708C24.7769 15.2708 23.0559 13.981 21.2057 14.0187C18.8196 14.0564 16.5897 15.4378 15.367 17.5784C12.8462 21.9487 14.726 28.3681 17.1445 31.9009C18.3564 33.6296 19.7676 35.5629 21.6178 35.4929C23.4276 35.4175 24.1036 34.3404 26.2877 34.3404C28.453 34.3404 29.0886 35.4929 30.9765 35.4498C32.9183 35.4175 34.1409 33.7131 35.3071 31.9655C36.7076 29.9836 37.2677 28.0315 37.2892 27.9319C37.2435 27.9157 33.5189 26.4939 33.4811 22.191" fill="white"/>
<path fill-rule="evenodd" clip-rule="evenodd" d="M29.9099 11.643C30.8823 10.4257 31.5529 8.76667 31.3644 7.08608C29.9557 7.15071 28.1944 8.06101 27.1789 9.25143C26.282 10.3018 25.4767 12.0227 25.6868 13.6387C27.2705 13.7571 28.8946 12.8415 29.9099 11.643" fill="white"/>
<path fill-rule="evenodd" clip-rule="evenodd" d="M59.6334 35.2102H57.1104L55.7291 30.8697H50.9308L49.6142 35.2102H47.1585L51.919 20.4331H54.8539M55.3144 29.0467L54.065 25.1882C53.9331 24.7951 53.6854 23.8661 53.3192 22.4067H53.2761C53.1307 23.0341 52.8938 23.9631 52.5733 25.1882L51.3455 29.0467H55.3144Z" fill="white"/>
<path fill-rule="evenodd" clip-rule="evenodd" d="M71.8688 29.7496C71.8688 31.5617 71.3787 32.9969 70.3985 34.047C69.5204 34.984 68.4301 35.4498 67.1323 35.4498C65.7268 35.4498 64.7197 34.9436 64.1058 33.9366H64.0627V39.5507H61.6932V28.0613C61.6932 26.9223 61.6663 25.7537 61.6071 24.5528H63.6884L63.8204 26.2438H63.8661C64.6551 24.9702 65.8533 24.3347 67.4608 24.3347C68.7156 24.3347 69.7685 24.8329 70.606 25.8265C71.4456 26.8227 71.8688 28.1286 71.8688 29.7496ZM69.4562 29.8384C69.4562 28.7991 69.2219 27.9455 68.7533 27.2723C68.2417 26.5723 67.5551 26.2196 66.6934 26.2196C66.1091 26.2196 65.576 26.4161 65.1048 26.8011C64.6309 27.1916 64.3185 27.6978 64.1705 28.3279C64.0977 28.6187 64.0627 28.8583 64.0627 29.0468V30.8239C64.0627 31.5994 64.2997 32.2537 64.7736 32.7868C65.2502 33.3227 65.8668 33.5866 66.6261 33.5866C67.52 33.5866 68.2147 33.2446 68.7075 32.5553C69.2081 31.8687 69.4562 30.964 69.4562 29.8384" fill="white"/>
<path fill-rule="evenodd" clip-rule="evenodd" d="M84.1199 29.7496C84.1199 31.5617 83.6325 32.9969 82.6524 34.047C81.7749 34.984 80.6871 35.4498 79.3864 35.4498C77.9837 35.4498 76.9766 34.9436 76.3596 33.9366H76.3197V39.5507H73.9498V28.0613C73.9498 26.9223 73.9202 25.7537 73.8636 24.5528H75.9454L76.077 26.2438H76.1232C76.909 24.9702 78.1077 24.3347 79.7152 24.3347C80.9725 24.3347 82.0196 24.8329 82.8626 25.8265C83.7029 26.8227 84.1199 28.1286 84.1199 29.7496ZM81.7101 29.8384C81.7101 28.7991 81.4757 27.9455 81.0077 27.2723C80.4955 26.5723 79.8089 26.2196 78.9473 26.2196C78.3635 26.2196 77.8327 26.4161 77.3591 26.8011C76.8821 27.1916 76.5754 27.6978 76.4299 28.3279C76.3548 28.6187 76.3197 28.8583 76.3197 29.0468V30.8239C76.3197 31.5994 76.554 32.2537 77.0276 32.7868C77.5046 33.3227 78.1208 33.5866 78.8832 33.5866C79.7738 33.5866 80.4686 33.2446 80.9642 32.5553C81.4598 31.8687 81.7101 30.964 81.7101 29.8384" fill="white"/>
<path fill-rule="evenodd" clip-rule="evenodd" d="M97.8209 31.0655C97.8209 32.3199 97.385 33.3429 96.5083 34.1343C95.5449 34.9957 94.2082 35.4265 92.4893 35.4265C90.8992 35.4265 89.6245 35.1195 88.6584 34.5058L89.2072 32.5353C90.2485 33.1625 91.3861 33.4748 92.6291 33.4748C93.5195 33.4748 94.2137 33.2756 94.7109 32.8745C95.2061 32.4707 95.4533 31.9323 95.4533 31.2594C95.4533 30.6617 95.2522 30.153 94.8431 29.7438C94.4341 29.3346 93.7537 28.955 92.804 28.6024C90.2189 27.636 88.9276 26.2228 88.9276 24.3654C88.9276 23.1513 89.3794 22.1553 90.2863 21.38C91.1898 20.6047 92.395 20.2144 93.899 20.2144C95.2439 20.2144 96.3603 20.4513 97.2507 20.917L96.6584 22.8472C95.8272 22.3949 94.8858 22.1661 93.8343 22.1661C93.0003 22.1661 92.3523 22.3706 91.8867 22.7798C91.4936 23.1459 91.2945 23.5928 91.2945 24.1177C91.2945 24.7019 91.5183 25.1837 91.9728 25.5633C92.3654 25.9132 93.0809 26.2928 94.1194 26.7046C95.3892 27.2161 96.3224 27.8137 96.9222 28.5002C97.5192 29.1866 97.8209 30.0426 97.8209 31.0655" fill="white"/>
<path fill-rule="evenodd" clip-rule="evenodd" d="M105.651 26.3297H103.041V31.5014C103.041 32.8179 103.502 33.4747 104.425 33.4747C104.846 33.4747 105.198 33.4397 105.476 33.3671L105.54 35.1627C105.077 35.3404 104.461 35.4266 103.701 35.4266C102.767 35.4266 102.034 35.1412 101.507 34.5732C100.982 34.0024 100.718 33.044 100.718 31.7006V26.3297H99.1613V24.5529H100.718V22.6038L103.041 21.9012V24.5529H105.651" fill="white"/>
<path fill-rule="evenodd" clip-rule="evenodd" d="M117.425 29.7954C117.425 31.4325 116.959 32.7761 116.022 33.8289C115.042 34.9113 113.742 35.4498 112.12 35.4498C110.554 35.4498 109.309 34.9302 108.38 33.8935C107.454 32.8569 106.991 31.5483 106.991 29.9704C106.991 28.3171 107.468 26.9654 108.426 25.9153C109.382 24.8598 110.672 24.3347 112.293 24.3347C113.857 24.3347 115.117 24.8544 116.065 25.891C116.972 26.9035 117.425 28.2013 117.425 29.7954ZM114.969 29.8708C114.969 28.8879 114.756 28.0478 114.331 27.3424C113.838 26.4915 113.127 26.066 112.207 26.066C111.256 26.066 110.532 26.4915 110.037 27.3424C109.611 28.0478 109.404 28.9041 109.404 29.9165C109.404 30.8993 109.611 31.7394 110.037 32.4422C110.548 33.293 111.264 33.7185 112.188 33.7185C113.09 33.7185 113.801 33.2877 114.312 32.4207C114.751 31.7044 114.969 30.8535 114.969 29.8708" fill="white"/>
<path fill-rule="evenodd" clip-rule="evenodd" d="M125.122 26.6406C124.887 26.5976 124.639 26.576 124.376 26.576C123.543 26.576 122.897 26.8909 122.445 27.5181C122.052 28.0752 121.855 28.775 121.855 29.6201V35.2104H119.488L119.506 27.9137C119.506 26.6837 119.477 25.5667 119.42 24.5574H121.483L121.569 26.5976H121.631C121.881 25.8977 122.278 25.3325 122.816 24.9099C123.344 24.5305 123.915 24.3394 124.529 24.3394C124.747 24.3394 124.946 24.3555 125.122 24.3824" fill="white"/>
<path fill-rule="evenodd" clip-rule="evenodd" d="M135.705 29.378C135.705 29.8035 135.678 30.1589 135.622 30.4524H128.521C128.545 31.5052 128.89 32.3103 129.55 32.865C130.148 33.3631 130.923 33.6081 131.874 33.6081C132.924 33.6081 133.883 33.4411 134.746 33.1046L135.118 34.7498C134.109 35.186 132.918 35.4095 131.542 35.4095C129.892 35.4095 128.594 34.9221 127.652 33.9474C126.712 32.9781 126.238 31.6721 126.238 30.035C126.238 28.4275 126.674 27.0893 127.555 26.023C128.473 24.8814 129.717 24.3132 131.278 24.3132C132.813 24.3132 133.979 24.8814 134.768 26.023C135.396 26.9277 135.705 28.0479 135.705 29.378M133.449 28.7641C133.465 28.0641 133.311 27.4555 132.991 26.9439C132.582 26.2869 131.949 25.9557 131.103 25.9557C130.331 25.9557 129.7 26.2788 129.219 26.9223C128.826 27.434 128.589 28.0479 128.521 28.7641H133.449Z" fill="white"/>
</svg>
